# xmcd
#
# Track frame offsets:
#	183
#	13633
#	27408
#	38820
#	51120
#	63245
#	76345
#	90008
#	103895
#	114695
#	126408
#	146083
#	160395
#	170345
#	184120
#	198120
#
# Disc length: 2789 seconds
#
# Revision: 0
# Processed by: cddbd v1.4PL0 Copyright (c) Steve Scherf et al.
# Submitted via: MusicWizard 6.0.2
#
DISCID=d20ae310
DTITLE=Various Artist - American Blues Busters
DYEAR=1900
DGENRE=Blues
TTITLE0=John Lee Hooker - One Bourbon One Scotch One Beer
TTITLE1=Muddy Waters - I'm Ready
TTITLE2=Sonny Boy Williamson - Your Funeral My Trial
TTITLE3=John Lee Hooker - I'm In The Mood
TTITLE4=Little Walter - My Babe
TTITLE5=Muddy Waters - Mannish Boy
TTITLE6=Lowell Fulson - Loving You
TTITLE7=Howling Wolf - Smokestack Lightnin'
TTITLE8=B. B. King - Recession Blues
TTITLE9=Etta James - I'd Rather Go Blind
TTITLE10=Little Milton - Sunny Monday
TTITLE11=Lowell Fulson - Reconsider Baby
TTITLE12=Buddy Guy - The First Time I Met The Blues
TTITLE13=Elmore James - Dust My Broom
TTITLE14=Little Walter - Blues With A Feeling
TTITLE15=Big Bill Broonzy's Washboard Sam - Jacqueline
EXTD=
EXTT0=
EXTT1=
EXTT2=
EXTT3=
EXTT4=
EXTT5=
EXTT6=
EXTT7=
EXTT8=
EXTT9=
EXTT10=
EXTT11=
EXTT12=
EXTT13=
EXTT14=
EXTT15=
PLAYORDER=
